# Blender 3.4.1
# www.blender.org
mtllib PE DE CABRALP.mtl
o LP
v 0.099650 10.428849 -0.218652
v 0.274828 10.065728 -0.218652
v -0.709628 10.452212 0.059312
v 0.239805 -1.302447 0.337276
v 0.301197 9.183691 0.337276
v 0.274828 10.065728 0.059312
v 0.116279 10.425620 0.059312
v 0.301197 9.183691 -0.218652
v 0.922891 -2.599195 0.038971
v 0.274828 10.065728 0.337276
v 0.239805 -1.302447 -0.218652
v 0.301197 -1.050320 0.059312
v -0.424071 10.614688 0.059312
v 0.099650 10.428849 0.337276
v -1.374338 8.970666 0.383245
v -1.023787 9.874840 -0.322119
v -0.421284 10.605227 0.337276
v 0.926157 -2.599195 0.444403
v -0.671911 10.464657 -0.220530
v 0.926157 -2.599195 -0.366462
v -0.671911 10.464657 0.339154
v -0.421284 10.605227 -0.218652
v -1.374338 8.970666 -0.264621
v -1.023787 9.874840 0.440742
v 0.301197 9.183691 0.059312
v -1.401837 8.899736 0.198294
v -1.401837 8.899736 -0.079670
v -0.162702 10.605283 -0.218178
v -0.160712 10.633251 0.059312
v -0.162702 10.605283 0.336802
v -0.011898 10.326604 -0.218652
v 0.125769 10.032016 -0.218652
v -0.598298 10.342976 0.059312
v 0.151018 -1.317261 0.337276
v 0.151197 9.181449 0.337276
v 0.125769 10.032016 0.059312
v -0.005143 10.329174 0.059312
v 0.151197 9.181449 -0.218652
v 0.982868 -2.766880 0.035597
v 0.125769 10.032016 0.337276
v 0.151018 -1.317261 -0.218652
v 0.151197 -1.421501 0.059312
v -0.379520 10.467456 0.059312
v -0.011898 10.326604 0.337276
v -1.172812 9.151183 0.368608
v -0.882957 9.819819 -0.322119
v -0.384959 10.458039 0.337276
v 0.982868 -2.766880 0.447692
v -0.574349 10.349099 -0.220493
v 0.982868 -2.766880 -0.376498
v -0.574349 10.349099 0.339117
v -0.384959 10.458039 -0.218652
v -1.172812 9.151183 -0.249985
v -0.882957 9.819819 0.440742
v 0.151197 9.181449 0.059312
v -1.195550 9.098732 0.198294
v -1.195550 9.098732 -0.079670
v -0.202807 10.457862 -0.218285
v -0.205941 10.479692 0.059312
v -0.202807 10.457862 0.336909
v -1.049289 9.773527 0.059312
v -0.922394 9.722945 0.059312
v -0.825414 10.239415 0.377255
v -0.703212 10.150161 0.377255
v -0.825414 10.239415 -0.258631
v -0.703212 10.150161 -0.258631
v -0.852671 10.189322 0.059312
v -0.740240 10.081965 0.059312
v 0.589604 -2.087598 0.051404
v 0.422343 -1.888925 -0.313722
v 0.422343 -1.888925 0.427122
v 0.337435 -1.917484 0.056700
v 0.357301 -1.916292 -0.313722
v 0.357301 -1.916292 0.427122
v 0.244316 -1.669492 0.058006
v 0.330772 -1.647251 -0.243012
v 0.330772 -1.647251 0.359024
v 0.254159 -1.668402 -0.243012
v 0.254159 -1.668402 0.359024
v 0.323574 -1.305330 0.059001
v -1.159739 9.181339 0.371862
v -1.358528 9.011445 0.385838
v -1.183231 9.126884 0.192026
v -1.385937 8.939145 0.192026
v -1.161238 9.177883 -0.252865
v -1.360340 9.006771 -0.266917
v -1.387760 8.934628 -0.074121
v -1.184643 9.123658 -0.074121
vn -0.6885 0.7244 0.0356
vn -0.2718 0.9610 0.0506
vn -0.2717 0.9624 -0.0000
vn -0.7092 0.7050 -0.0000
vn -0.9301 0.3670 0.0175
vn -0.9301 0.3672 0.0130
vn -0.9150 0.4033 -0.0000
vn -0.9096 0.4146 0.0279
vn 0.9984 0.0135 0.0543
vn 0.9620 0.1371 0.2361
vn 0.9987 0.0506 -0.0000
vn 0.9999 0.0135 -0.0000
vn 0.9169 -0.3991 0.0027
vn 0.9037 -0.4281 -0.0000
vn 0.8994 -0.4370 0.0094
vn 0.9169 -0.3991 0.0033
vn 0.9617 0.1382 -0.2365
vn 0.9984 0.0135 -0.0543
vn -0.2718 0.9610 -0.0506
vn -0.6885 0.7244 -0.0356
vn 0.2913 0.9544 0.0648
vn 0.7643 0.6434 0.0420
vn 0.7748 0.6323 -0.0000
vn 0.2833 0.9590 -0.0000
vn -0.8667 -0.4979 0.0310
vn -0.8754 -0.4834 0.0001
vn -0.8012 -0.5985 -0.0003
vn -0.8007 -0.5987 0.0212
vn -0.8762 0.4819 -0.0000
vn -0.8736 0.4866 -0.0048
vn 0.8693 0.4943 -0.0007
vn 0.8246 0.5658 -0.0004
vn 0.8239 0.5660 -0.0294
vn 0.8927 0.4195 -0.1647
vn 0.9734 0.2291 -0.0000
vn 0.9733 0.2291 0.0126
vn 0.9733 0.2291 -0.0126
vn 0.7643 0.6434 -0.0420
vn 0.2913 0.9544 -0.0648
vn -0.8736 0.4866 0.0048
vn -0.9096 0.4146 -0.0279
vn 0.7028 -0.7110 -0.0239
vn 0.7107 -0.7035 -0.0000
vn 0.2690 -0.9631 -0.0000
vn 0.2778 -0.9598 -0.0396
vn -0.9301 0.3672 -0.0131
vn -0.9300 0.3676 -0.0042
vn -0.9301 0.3670 -0.0176
vn -0.9999 -0.0149 -0.0002
vn -0.9999 -0.0149 -0.0000
vn -0.9816 -0.1908 0.0001
vn -0.9918 -0.1248 0.0289
vn -0.9999 -0.0149 0.0002
vn -0.9917 -0.1250 -0.0290
vn 0.7028 -0.7110 0.0239
vn 0.2778 -0.9598 0.0396
vn -0.2970 -0.9536 -0.0502
vn -0.2842 -0.9588 -0.0000
vn -0.7743 -0.6329 -0.0000
vn -0.7723 -0.6346 -0.0272
vn -0.0555 0.1446 -0.9879
vn -0.0294 0.0526 -0.9982
vn -0.0592 0.1576 -0.9857
vn 0.9169 -0.3991 -0.0026
vn 0.9168 -0.3992 -0.0008
vn 0.9169 -0.3991 -0.0033
vn 0.8756 -0.4831 -0.0000
vn 0.8994 -0.4370 -0.0093
vn 0.8730 -0.4876 0.0068
vn -0.8660 -0.4991 -0.0308
vn -0.8012 -0.5980 -0.0213
vn -0.9741 -0.2260 -0.0066
vn -0.9741 -0.2260 -0.0000
vn -0.7723 -0.6346 0.0272
vn -0.9741 -0.2260 0.0066
vn -0.2970 -0.9536 0.0502
vn 0.8730 -0.4876 -0.0068
vn -0.0062 0.0287 0.9996
vn -0.0000 -0.0000 1.0000
vn -0.0065 0.0299 0.9995
vn -0.0438 0.1220 0.9916
vn -0.0486 0.1369 0.9894
vn -0.0096 0.0173 0.9998
vn 0.0900 0.1235 -0.9883
vn 0.0532 0.0550 -0.9971
vn 0.0561 0.0582 -0.9967
vn 0.0885 0.1251 -0.9882
vn 0.0042 0.0018 -1.0000
vn 0.0043 0.0018 -1.0000
vn 0.0004 0.0007 -1.0000
vn -0.0006 0.0006 -1.0000
vn -0.0005 0.0005 -1.0000
vn -0.0006 0.0006 1.0000
vn -0.0005 0.0005 1.0000
vn 0.1932 -0.1585 0.9683
vn 0.1001 -0.1221 0.9875
vn 0.0783 0.0190 0.9967
vn 0.0784 0.0075 0.9969
vn 0.0004 0.0007 1.0000
vn -0.0000 -0.0000 -1.0000
vn 0.6760 -0.7205 -0.1546
vn 0.0042 0.0018 1.0000
vn 0.0532 0.0550 0.9971
vn 0.0561 0.0582 0.9967
vn 0.0043 0.0018 1.0000
vn -0.0070 0.0322 -0.9995
vn -0.0073 0.0335 -0.9994
vn -0.0480 0.1508 0.9874
vn -0.0457 0.1446 0.9884
vn 0.0900 0.1235 0.9883
vn 0.0885 0.1251 0.9882
vn 0.9445 0.3285 -0.0000
vn 0.9445 0.3286 -0.0038
vn 0.6760 -0.7205 0.1546
vn 0.9445 0.3285 0.0038
vn 0.0788 0.0073 -0.9969
vn 0.0786 0.0188 -0.9967
vn -0.0503 0.1586 -0.9861
vn -0.0479 0.1524 -0.9872
vn -0.9394 -0.3383 0.0558
vn -0.9419 -0.3358 -0.0000
vn -0.9395 -0.3380 -0.0557
vn 0.8949 0.4152 0.1635
vn 0.8246 0.5650 0.0294
vn 0.1941 -0.1588 -0.9680
vn 0.1006 -0.1223 -0.9874
vn 0.8187 0.3790 0.4314
vn 0.7758 0.4253 0.4661
vn 0.9760 0.2176 -0.0001
vn 0.8158 0.3831 -0.4333
vn 0.7724 0.4296 -0.4679
vn 0.9468 0.3220 0.0008
vn 0.2418 -0.2737 -0.9309
vn 0.0908 -0.2182 -0.9717
vn 0.1166 -0.2281 -0.9666
vn 0.2428 -0.2741 0.9305
vn 0.2681 -0.2829 0.9209
vn 0.1174 -0.2284 0.9665
vn 0.2672 -0.2825 -0.9213
vn 0.2148 -0.1668 0.9623
vn 0.9169 -0.3992 0.0008
vn 0.0917 -0.2186 0.9715
vn 0.2155 -0.1670 -0.9621
vn -0.9300 0.3676 0.0040
vt 0.166887 0.191527
vt 0.185101 0.210686
vt 0.137173 0.136257
vt 0.800337 0.764493
vt 0.257250 0.226573
vt 0.198697 0.197857
vt 0.180655 0.179803
vt 0.228342 0.255793
vt 0.848885 0.904793
vt 0.912539 0.841116
vt 0.211587 0.184323
vt 0.771326 0.793933
vt 0.772418 0.765933
vt 0.152868 0.151979
vt 0.192393 0.166064
vt 0.087332 0.039141
vt 0.086167 0.122921
vt 0.166449 0.139292
vt 0.870571 0.844438
vt 0.890213 0.860958
vt 0.125221 0.152489
vt 0.852680 0.863002
vt 0.868918 0.882885
vt 0.153425 0.124334
vt 0.140158 0.165539
vt 0.040259 0.086182
vt 0.123933 0.085222
vt 0.242701 0.241440
vt 0.076656 0.033754
vt 0.085606 0.010281
vt 0.011336 0.084308
vt 0.035178 0.075484
vt 0.152761 0.176546
vt 0.165172 0.164302
vt 0.177435 0.151914
vt 0.158845 0.199234
vt 0.177180 0.217647
vt 0.182086 0.101862
vt 0.102699 0.181118
vt 0.805315 0.760159
vt 0.264505 0.219087
vt 0.233530 0.161094
vt 0.161823 0.232644
vt 0.143640 0.215411
vt 0.216322 0.142852
vt 0.220924 0.263145
vt 0.903982 0.831168
vt 0.839453 0.895785
vt 0.218462 0.176356
vt 0.767036 0.798959
vt 0.758246 0.818386
vt 0.824710 0.751262
vt 0.118337 0.193066
vt 0.194010 0.117516
vt 0.200107 0.158038
vt 0.100021 0.043874
vt 0.080273 0.131140
vt 0.175565 0.131848
vt 0.881344 0.851395
vt 0.117727 0.161814
vt 0.859874 0.873572
vt 0.162762 0.116857
vt 0.132698 0.174643
vt 0.044958 0.098912
vt 0.132169 0.079349
vt 0.278800 0.204639
vt 0.206234 0.277838
vt 0.101736 0.029311
vt 0.030326 0.100561
vt 0.144424 0.185595
vt 0.128564 0.202257
vt 0.203186 0.127755
vt 0.186498 0.143592
vt 0.154482 0.044921
vt 0.097692 0.096717
vt 0.045739 0.153395
vt 0.149625 0.054624
vt 0.055479 0.148570
vt 0.141917 0.108088
vt 0.150265 0.100588
vt 0.108995 0.140951
vt 0.101479 0.149287
vt 0.122248 0.121306
vt 0.168787 0.081345
vt 0.082196 0.167786
vt 0.941886 0.875217
vt 0.881126 0.935776
vt 0.806713 0.825956
vt 0.913207 0.928914
vt 0.832543 0.799449
vt 0.933942 0.907913
vt 0.852187 0.777121
vt 0.784300 0.845569
vt 0.803313 0.829168
vt 0.835692 0.796009
vt 0.771841 0.831753
vt 0.838253 0.764744
vt 0.792767 0.812073
vt 0.818622 0.785682
vt 0.788486 0.816489
vt 0.822997 0.781366
vt 0.984055 0.919117
vt 0.785203 0.778591
vt 0.923339 0.979117
vt 0.101814 0.045385
vt 0.088254 0.040777
vt 0.104268 0.030447
vt 0.089012 0.011820
vt 0.076021 0.037715
vt 0.046298 0.100525
vt 0.041708 0.087011
vt 0.012687 0.087337
vt 0.038637 0.074975
vt 0.031324 0.102811
s 1
usemtl TT_checker_512x512_UV_GRID
f 21/24/1 17/18/2 13/14/3 3/3/4
f 86/111/5 87/113/6 61/75/7 16/17/8
f 5/5/9 4/4/10 12/13/11 25/28/12
f 83/107/13 62/77/14 54/65/15 81/105/16
f 25/28/12 12/13/11 11/12/17 8/8/18
f 3/3/4 13/14/3 22/25/19 19/21/20
f 30/35/21 14/15/22 7/7/23 29/34/24
f 74/95/25 72/92/26 39/47/27 48/59/28
f 67/83/29 65/81/30 16/17/8 61/75/7
f 69/87/31 9/9/32 20/23/33 70/89/34
f 5/5/9 25/28/12 6/6/35 10/11/36
f 7/7/23 6/6/35 2/2/37 1/1/38
f 29/34/24 7/7/23 1/1/38 28/33/39
f 14/15/22 10/11/36 6/6/35 7/7/23
f 63/79/40 67/83/29 61/75/7 24/27/41
f 13/14/3 29/34/24 28/33/39 22/25/19
f 17/18/2 30/35/21 29/34/24 13/14/3
f 51/62/42 33/38/43 43/54/44 47/58/45
f 84/109/46 26/29/47 15/16/47 82/106/48
f 35/41/49 55/66/50 42/52/51 34/40/52
f 55/67/50 38/46/53 41/50/54 42/51/51
f 25/28/12 8/8/18 2/2/37 6/6/35
f 33/39/43 49/60/55 52/63/56 43/53/44
f 60/73/57 59/72/58 37/45/59 44/55/60
f 70/88/61 20/22/62 50/61/62 73/94/63
f 88/114/64 57/69/65 53/64/65 85/110/66
f 68/85/67 62/78/14 46/57/68 66/82/69
f 72/93/26 73/94/70 50/61/71 39/48/27
f 35/41/49 40/49/72 36/42/73 55/66/50
f 37/44/59 31/36/74 32/37/75 36/43/73
f 59/71/58 58/70/76 31/36/74 37/44/59
f 44/55/60 37/45/59 36/42/73 40/49/72
f 64/80/77 54/65/15 62/77/14 68/84/67
f 43/53/44 52/63/56 58/70/76 59/71/58
f 47/58/45 43/54/44 59/72/58 60/73/57
f 4/4/78 5/5/79 35/41/79 34/40/80
f 71/90/81 74/95/82 48/59/83 18/19/83
f 65/81/84 19/21/85 49/60/86 66/82/87
f 19/21/85 22/25/88 52/63/89 49/60/86
f 55/67/50 36/43/73 32/37/75 38/46/53
f 28/33/90 1/1/91 31/36/92 58/70/90
f 10/11/79 14/15/93 44/55/94 40/49/79
f 82/106/95 81/105/96 54/65/97 24/27/98
f 5/5/79 10/11/79 40/49/79 35/41/79
f 14/15/93 30/35/99 60/73/99 44/55/94
f 1/1/91 2/2/100 32/37/100 31/36/92
f 27/32/101 23/26/101 53/64/101 57/69/101
f 17/18/102 21/24/103 51/62/104 47/58/105
f 8/8/100 11/12/106 41/50/107 38/46/100
f 77/99/108 4/4/78 34/40/80 79/101/109
f 63/79/110 24/27/98 54/65/97 64/80/111
f 9/10/112 18/20/113 48/59/113 39/47/112
f 15/16/114 26/29/114 56/68/114 45/56/114
f 20/23/115 9/9/112 39/48/112 50/61/115
f 22/25/88 28/33/90 58/70/90 52/63/89
f 30/35/99 17/18/102 47/58/105 60/73/99
f 21/24/103 63/79/110 64/80/111 51/62/104
f 51/62/42 64/80/77 68/84/67 33/38/43
f 21/24/1 3/3/4 67/83/29 63/79/40
f 16/17/116 65/81/84 66/82/87 46/57/117
f 33/39/43 68/85/67 66/82/69 49/60/55
f 3/3/4 19/21/20 65/81/30 67/83/29
f 76/98/118 70/88/61 73/94/63 78/100/119
f 79/101/120 75/97/121 72/92/26 74/95/25
f 75/96/121 78/100/122 73/94/70 72/93/26
f 71/91/123 18/20/124 9/10/32 69/86/31
f 86/111/125 16/17/116 46/57/117 85/110/126
f 2/2/100 8/8/100 38/46/100 32/37/100
f 77/99/127 71/90/128 80/103/129
f 12/13/11 80/103/129 76/98/130 11/12/17
f 42/51/51 41/50/54 78/100/122 75/96/121
f 34/40/52 42/52/51 75/97/121 79/101/120
f 11/12/106 76/98/118 78/100/119 41/50/107
f 71/90/81 77/99/108 79/101/109 74/95/82
f 76/98/130 80/103/129 70/88/131
f 71/91/123 69/86/31 80/102/132
f 4/4/10 77/99/127 80/103/129 12/13/11
f 69/87/31 70/89/34 80/104/132
f 84/108/133 61/74/134 62/77/134 83/107/135
f 87/112/136 27/31/137 57/69/137 88/114/138
f 26/30/139 84/108/133 83/107/135 56/68/139
f 15/16/140 45/56/140 81/105/96 82/106/95
f 61/75/7 84/109/46 82/106/48 24/27/41
f 56/68/141 83/107/13 81/105/16 45/56/141
f 61/76/142 87/112/136 88/114/138 62/78/142
f 23/26/143 86/111/125 85/110/126 53/64/143
f 62/78/14 88/114/64 85/110/66 46/57/68
f 23/26/144 27/32/144 87/113/6 86/111/5
